<?xml version="1.0" encoding="UTF-8"?> <svg xmlns="http://www.w3.org/2000/svg" width="265" height="71" viewBox="0 0 265 71" fill="none"><path d="M35.0141 69.2431C54.065 69.2431 69.5087 53.8299 69.5087 34.8168C69.5087 15.8038 54.065 0.390625 35.0141 0.390625C15.9634 0.390625 0.519531 15.8038 0.519531 34.8168C0.519531 53.8299 15.9634 69.2431 35.0141 69.2431Z" fill="#EA684E"></path><path d="M45.0664 48.9348C45.1446 48.9592 45.2034 48.8763 45.1691 48.803C44.5181 47.4498 45.2475 46.7073 45.5314 46.4874C46.0405 46.1356 46.6425 46.1552 47.0292 46.2187C47.1369 46.2383 47.2055 46.1112 47.1321 46.033C46.3978 45.2465 46.4173 44.5236 46.5543 44.074C46.9949 43.014 48.2432 42.7013 48.9676 42.6035C49.0655 42.589 49.0753 42.457 48.9823 42.4277C47.4062 41.905 46.8089 40.586 46.3586 39.7409C45.6439 38.4121 44.8265 37.6353 44.4545 37.3226C44.3369 37.2249 44.1705 37.2055 44.0287 37.2641C41.4881 38.3486 39.9707 36.9368 39.5253 36.4238C39.442 36.331 39.3002 36.3261 39.2023 36.4043C37.3666 37.8455 35.6289 37.0101 35.0465 36.6143C35.0465 36.6143 35.0366 36.6045 35.0318 36.6045C35.0268 36.5997 35.0171 36.6143 35.0171 36.6143C34.4345 37.0101 32.6968 37.8455 30.8613 36.4043C30.7634 36.3261 30.6165 36.331 30.5333 36.4238C30.0878 36.9368 28.5656 38.3486 26.0299 37.2641C25.888 37.2055 25.7216 37.2249 25.604 37.3226C25.232 37.6353 24.4098 38.4121 23.6999 39.7409C23.2448 40.586 22.6475 41.905 21.0762 42.4277C20.9832 42.457 20.9931 42.5938 21.0909 42.6035C21.8154 42.6964 23.0588 43.014 23.5042 44.074C23.6412 44.5236 23.6608 45.2465 22.9266 46.033C22.8532 46.1112 22.9266 46.2383 23.0293 46.2187C23.4161 46.1552 24.0182 46.1356 24.5272 46.4874C24.8112 46.7073 25.5405 47.4498 24.8895 48.803C24.8552 48.8763 24.9139 48.9592 24.9922 48.9348C25.3545 48.8225 26.211 48.7444 26.8132 49.0912C27.288 49.3648 27.4936 49.6481 27.7383 50.2197C27.7726 50.3027 27.8607 50.3564 27.9487 50.3419C28.4627 50.2442 30.1955 50.0292 31.3704 51.3677C31.4291 51.4361 31.5172 51.4752 31.6052 51.4556C32.1291 51.3628 34.0381 51.1137 35.0268 52.2959C35.0268 52.2959 35.0366 52.3106 35.0415 52.3106C35.0465 52.3154 35.0562 52.2959 35.0562 52.2959C36.04 51.1185 37.9492 51.3628 38.4777 51.4556C38.5659 51.4704 38.654 51.4361 38.7127 51.3677C39.8924 50.0292 41.6253 50.2442 42.1343 50.3419C42.2224 50.3613 42.3105 50.3027 42.3448 50.2197C42.5847 49.6481 42.7903 49.3648 43.27 49.0912C43.8475 48.7444 44.7041 48.8225 45.0664 48.9348Z" fill="white"></path><path d="M28.0137 36.3796C28.4445 36.3796 28.7969 36.0279 28.7969 35.5979C28.7969 35.1681 28.4445 34.8164 28.0137 34.8164C27.5829 34.8164 27.2305 35.1681 27.2305 35.5979C27.2305 36.0279 27.578 36.3796 28.0137 36.3796Z" fill="white"></path><path d="M42.0136 36.3737C42.4462 36.3737 42.7969 36.0238 42.7969 35.5922C42.7969 35.1605 42.4462 34.8105 42.0136 34.8105C41.5811 34.8105 41.2305 35.1605 41.2305 35.5922C41.2305 36.0238 41.5811 36.3737 42.0136 36.3737Z" fill="white"></path><path d="M10.0071 29.1394C10.5456 29.4618 11.4903 29.8087 12.7826 29.2616C14.0748 28.7193 18.6614 26.4818 19.9537 24.2443C19.9537 24.2443 20.7662 22.9889 19.8802 20.7856C18.9894 18.5825 19.6747 15.7441 20.6047 14.2688C21.5348 12.7934 23.0423 11.3376 23.7228 10.2678C23.8158 10.1212 23.8793 9.78411 23.6003 9.5594C23.3018 9.32002 22.8172 9.54963 22.6508 9.68152C22.4795 9.80854 16.7034 13.409 14.1531 18.1428C11.6029 22.8766 11.2896 24.8599 10.1638 25.9835C9.361 26.7847 8.82745 26.8776 8.52397 27.0631C8.37713 27.1511 8.12749 27.3563 8.53377 27.7862C8.87151 28.1476 9.46869 28.817 10.0071 29.1394Z" fill="white"></path><path d="M13.9094 32.5212C15.0548 31.969 14.9275 31.1337 14.6632 30.694C14.2814 30.0639 13.5276 29.9173 12.7786 30.2983C11.9856 30.7039 11.222 30.6647 10.7325 30.5914C10.4046 30.5426 10.106 30.5963 9.75356 30.9871C9.39622 31.3731 8.9459 31.4268 8.79416 31.4367C8.6473 31.4464 8.36339 31.4464 8.24102 31.6614C8.08928 31.9202 8.27529 32.1499 8.37319 32.2476C10.1207 34.0013 12.4947 33.2051 13.9094 32.5212Z" fill="white"></path><path d="M11.8319 38.6216C11.9591 38.7584 12.1305 38.6949 12.2039 38.6754C12.713 38.5289 13.1095 38.5142 13.9612 39.0516C15.0429 39.7355 17.6617 41.0887 20.2609 40.8737C20.2609 40.8737 21.2351 40.8884 21.6902 39.9943C22.1455 39.1004 21.5238 38.3383 21.0196 37.9915C20.5155 37.6398 18.6015 36.5943 17.8673 35.5782C17.1331 34.562 16.1443 33.2918 15.415 33.331C14.2304 33.3945 11.8661 34.0345 10.5445 36.3696C10.476 36.4917 10.2998 36.7213 10.4025 36.9167C10.5053 37.1121 10.8186 37.0974 10.9655 37.0974C11.1123 37.0974 11.6018 37.0437 11.8074 37.3515C11.9836 37.6154 11.8466 38.0892 11.8074 38.2309C11.778 38.3628 11.7242 38.5045 11.8319 38.6216Z" fill="white"></path><path d="M21.51 17.6105C21.4218 17.5861 21.2455 17.4297 20.9665 17.5616C20.7757 17.6544 20.6631 17.9573 20.6532 18.4507C20.6337 19.6378 20.9372 20.2729 21.1771 21.3622C21.231 21.6164 21.3582 21.8752 21.7742 21.8312C22.1854 21.7874 22.4841 21.5137 22.6846 21.294C22.8854 21.0741 25.3622 18.0159 25.7538 16.306C25.793 16.14 25.8713 15.8078 25.607 15.6515C25.3426 15.4951 25.1175 15.6711 24.8336 16.0032C24.6133 16.2572 23.5414 17.2441 22.6602 17.5859C22.0631 17.8205 21.7645 17.6886 21.51 17.6105Z" fill="white"></path><path d="M49.4317 14.2697C50.3617 15.745 51.0421 18.5834 50.1561 20.7866C49.2653 22.9899 50.0827 24.2454 50.0827 24.2454C51.375 26.4828 55.9615 28.7154 57.2538 29.2625C58.546 29.8047 59.4907 29.4627 60.0292 29.1403C60.5676 28.8179 61.1599 28.1487 61.5026 27.7872C61.9089 27.3572 61.6591 27.1521 61.5123 27.0641C61.204 26.8785 60.6704 26.7856 59.8726 25.9846C58.7468 24.8609 58.4335 22.8775 55.8832 18.1437C53.333 13.4099 47.5569 9.8144 47.3856 9.68249C47.2143 9.55547 46.7346 9.32099 46.4359 9.56036C46.1569 9.78508 46.2206 10.1222 46.3136 10.2687C46.994 11.3386 48.5016 12.7944 49.4317 14.2697Z" fill="white"></path><path d="M60.2846 30.991C59.9272 30.6052 59.6286 30.5515 59.3056 30.5953C58.8112 30.6638 58.0476 30.7078 57.2595 30.3022C56.5107 29.9212 55.7568 30.0678 55.3749 30.698C55.1107 31.1327 54.9834 31.9681 56.1288 32.5251C57.5434 33.209 59.9175 34.0052 61.665 32.2515C61.7629 32.1489 61.9489 31.9242 61.7972 31.6653C61.6699 31.4503 61.3909 31.4503 61.244 31.4406C61.0922 31.4307 60.6419 31.3818 60.2846 30.991Z" fill="white"></path><path d="M59.0706 37.0916C59.2175 37.0916 59.5356 37.1111 59.6335 36.9109C59.7313 36.7106 59.5601 36.4859 59.4915 36.3637C58.1699 34.0285 55.8057 33.3935 54.6211 33.3251C53.8917 33.286 52.903 34.5562 52.1687 35.5722C51.4344 36.5884 49.5206 37.6388 49.0163 37.9856C48.5122 38.3373 47.8905 39.0946 48.3458 39.9885C48.801 40.8826 49.775 40.8679 49.775 40.8679C52.3791 41.0828 54.9931 39.7297 56.0748 39.0457C56.9267 38.5083 57.3231 38.5279 57.8322 38.6694C57.9056 38.689 58.0769 38.7526 58.2042 38.6157C58.3168 38.4986 58.2581 38.3569 58.2238 38.2152C58.1846 38.0783 58.0475 37.5997 58.2238 37.3358C58.4391 37.033 58.9286 37.0916 59.0706 37.0916Z" fill="white"></path><path d="M47.3425 21.294C47.5432 21.5137 47.8418 21.7922 48.2529 21.8312C48.6642 21.8752 48.7914 21.6164 48.8502 21.3622C49.0901 20.2729 49.3935 19.6378 49.3739 18.4507C49.3641 17.9523 49.2515 17.6495 49.0606 17.5616C48.7865 17.4297 48.6054 17.5861 48.5174 17.6105C48.2628 17.6838 47.9592 17.8156 47.3621 17.5859C46.481 17.2441 45.409 16.2572 45.1887 16.0032C44.9048 15.6711 44.6797 15.4951 44.4154 15.6515C44.151 15.8078 44.2293 16.1449 44.2686 16.306C44.665 18.0159 47.1418 21.0741 47.3425 21.294Z" fill="white"></path><path d="M48.0906 44.5096C48.0612 44.6414 48.0955 44.8857 48.3843 45.0958C48.9032 45.4671 48.8737 46.1119 49.324 46.322C49.8087 46.5467 50.3472 46.1607 50.8416 46.3757C51.0421 46.4636 51.1597 46.664 51.3261 46.7958C51.5073 46.9424 51.7129 47.0058 51.9429 46.962C52.2121 46.9131 52.6037 46.7373 53.3233 46.7617C54.6303 46.8643 56.0742 46.7177 57.5721 46.1216C63.5781 43.7328 63.9061 36.9961 63.9061 36.9961L57.9784 42.8437C57.7141 43.1027 57.5525 43.4445 57.5134 43.806L57.2931 45.8383L55.9175 44.446C55.5945 44.1236 55.154 43.9478 54.6938 43.9722C54.6938 43.9722 50.0682 44.1676 48.5605 44.2164C48.4136 44.2262 48.1445 44.2554 48.0906 44.5096Z" fill="white"></path><path d="M54.156 50.8444L53.6125 52.1683L52.9174 50.61C52.7461 50.1556 52.3888 49.7991 51.9336 49.6232L46.9946 47.6788C46.9946 47.6788 46.6372 47.4981 46.4562 47.7032C46.2898 47.8889 46.3533 48.099 46.5296 48.3286C46.6128 48.436 46.7156 48.6461 46.7548 48.8904C46.8331 49.3398 46.7596 49.7746 47.1659 50.0629C47.5526 50.3364 48.0862 50.2387 48.4533 50.5611C48.6149 50.7028 48.6637 50.9031 48.7519 51.0887C48.8645 51.3135 49.0357 51.5088 49.2903 51.5235C50.0637 51.5626 50.9644 51.929 50.9644 51.929C52.8098 52.6179 54.9292 52.569 56.9459 51.7825C59.1145 50.9324 60.7445 49.3057 61.6403 47.3418L55.2034 49.7551C54.709 49.9309 54.3174 50.3364 54.156 50.8444Z" fill="white"></path><path d="M51.1732 55.5694L44.521 50.4349C44.521 50.4349 44.2665 50.2542 44.0657 50.3764C43.9679 50.4349 43.8945 50.5474 43.9385 50.7916C43.9629 50.9283 44.0315 51.2264 44.002 51.3779C43.958 51.6123 43.8356 51.8224 43.9776 52.0618C44.0853 52.2425 44.3105 52.2572 44.4817 52.5308C44.5503 52.6382 44.5063 52.9558 44.6237 53.0437C44.702 53.1023 44.8832 53.1756 45.0153 53.2049C45.2454 53.2586 45.7399 54.0745 46.2146 54.4359C47.4971 55.4179 49.0438 55.8137 50.532 55.6817C50.532 55.6817 50.8892 55.6476 51.0802 55.6084L42.7539 60.6794C44.5015 61.2216 46.4594 61.0458 48.1383 60.0198C49.602 59.1307 50.5858 57.758 51.0264 56.2338C51.0264 56.2338 51.1585 55.7501 51.1781 55.584C51.1732 55.5791 51.1682 55.5743 51.1732 55.5694C51.1682 55.5694 51.1682 55.5694 51.1732 55.5694Z" fill="white"></path><path d="M12.4718 46.1206C13.9696 46.7168 15.4136 46.8632 16.7206 46.7606C17.44 46.7362 17.8318 46.9072 18.1009 46.9609C18.331 47.0049 18.5366 46.9415 18.7177 46.7949C18.8842 46.658 19.0016 46.4626 19.2023 46.3748C19.6967 46.1598 20.24 46.5408 20.7197 46.3209C21.17 46.1109 21.1456 45.4661 21.6596 45.0947C21.9483 44.8896 21.9826 44.6405 21.9533 44.5086C21.8994 44.2545 21.6301 44.2252 21.4784 44.2204C19.9707 44.1715 15.3451 43.9761 15.3451 43.9761C14.8898 43.9517 14.4444 44.1226 14.1213 44.4499L12.7459 45.8422L12.5256 43.81C12.4864 43.4436 12.32 43.1066 12.0606 42.8476L6.13281 37C6.1377 36.9951 6.46567 43.7318 12.4718 46.1206Z" fill="white"></path><path d="M20.7426 51.5225C20.997 51.5079 21.1684 51.3125 21.281 51.0878C21.374 50.9021 21.418 50.7018 21.5796 50.5601C21.9467 50.2426 22.4803 50.3354 22.867 50.0619C23.2733 49.7736 23.1999 49.3339 23.2781 48.8894C23.3173 48.65 23.42 48.44 23.5033 48.3276C23.6796 48.098 23.7431 47.8879 23.5767 47.7023C23.3956 47.4971 23.0383 47.6779 23.0383 47.6779L18.0992 49.6222C17.6441 49.7981 17.2916 50.1547 17.1153 50.609L16.4204 52.1675L15.8769 50.8435C15.7154 50.3354 15.3238 49.9299 14.8196 49.7492L8.38281 47.3359C9.28349 49.2949 10.9086 50.9265 13.0771 51.7766C15.0938 52.5631 17.2132 52.612 19.0586 51.9232C19.0685 51.928 19.9692 51.5568 20.7426 51.5225Z" fill="white"></path><path d="M19.5055 55.6817C20.9983 55.8137 22.5403 55.4179 23.8227 54.4359C24.3024 54.0695 24.7969 53.2537 25.022 53.2049C25.1542 53.1756 25.3353 53.1072 25.4136 53.0437C25.5261 52.9558 25.487 52.6382 25.5556 52.5308C25.7269 52.2572 25.9521 52.2425 26.0597 52.0618C26.2017 51.8224 26.0793 51.6173 26.0353 51.3779C26.0059 51.2264 26.0744 50.9283 26.0989 50.7916C26.143 50.5474 26.0696 50.4349 25.9717 50.3764C25.771 50.2542 25.5164 50.4349 25.5164 50.4349L18.8642 55.5694C18.8642 55.5694 18.8642 55.5743 18.8691 55.5743C18.8642 55.5791 18.8642 55.5791 18.8594 55.5888C18.8789 55.755 19.0111 56.2387 19.0111 56.2387C19.4517 57.7628 20.4355 59.1356 21.8991 60.0247C23.578 61.0506 25.536 61.2216 27.2836 60.6842L18.9572 55.6133C19.1531 55.6427 19.5055 55.6817 19.5055 55.6817Z" fill="white"></path><path d="M31.9129 20.0538C32.0499 20.6596 32.0939 20.8794 32.1577 21.451C32.1869 21.6855 32.3876 21.8662 32.6178 21.8662C32.6374 21.8662 32.6618 21.8662 32.6814 21.8614C32.9408 21.8321 33.1268 21.5975 33.0975 21.3337C33.0241 20.7329 32.9799 20.4886 32.8331 19.8438C32.7744 19.5897 32.5149 19.4334 32.2654 19.4871C32.0157 19.5458 31.8591 19.7998 31.9129 20.0538Z" fill="white"></path><path d="M40.4628 8.00536C40.4286 7.92231 40.365 7.8588 40.2768 7.8246C40.1887 7.79529 38.0887 7.0625 35.0049 7.0625C31.9212 7.0625 29.8408 7.79529 29.7575 7.8246C29.6744 7.85392 29.6058 7.91743 29.5715 8.00046C29.5373 8.08351 28.764 10.0718 28.9401 13.5305C29.0283 15.1769 29.2925 16.7841 29.7575 18.4499C31.3631 24.1998 31.5295 27.1555 30.4087 29.7446C30.208 30.2186 30.4037 30.7509 30.859 30.9562C31.5541 31.2688 32.8218 31.645 34.8973 31.645C37.0119 31.645 38.3824 31.259 39.1559 30.9318C39.3713 30.8438 39.5377 30.6777 39.6258 30.4578C39.7188 30.2283 39.7138 29.9596 39.616 29.7202C38.5 27.1359 38.6713 24.1853 40.272 18.4451C40.737 16.7792 41.0061 15.167 41.0894 13.5257C41.2655 10.0767 40.4921 8.08353 40.4628 8.00536ZM39.6747 18.2888C38.03 24.1853 37.8636 27.2385 39.0433 29.9693C39.0824 30.0573 39.0824 30.155 39.0531 30.2331C39.0286 30.2967 38.9797 30.3407 38.916 30.37C38.3286 30.6191 37.0167 31.0343 34.8973 31.0343C32.8316 31.0343 31.6421 30.6387 31.1135 30.3992C30.9618 30.3308 30.908 30.1647 30.9764 29.9987C32.1611 27.258 31.9995 24.195 30.3548 18.2937C29.9338 16.7792 29.6793 15.3186 29.5814 13.8286H30.7807C30.8198 14.4783 30.8981 15.1769 31.045 15.9341C31.1722 16.5594 31.2848 16.9746 31.4022 17.3947C31.4659 17.6293 31.5345 17.8637 31.6029 18.1423C31.6568 18.3571 31.8428 18.4988 32.0534 18.5037C32.0925 18.5037 32.1317 18.4988 32.1756 18.4891C32.4302 18.4255 32.5869 18.1715 32.5232 17.9174C32.4546 17.6293 32.3862 17.385 32.3177 17.1408C32.2051 16.7402 32.0974 16.3444 31.9749 15.7484C31.8379 15.0596 31.7694 14.4246 31.7302 13.8286H40.4481C40.3503 15.3136 40.0957 16.7743 39.6747 18.2888Z" fill="white"></path><path d="M82.2522 63.1961C81.6158 62.8444 81.1165 62.3657 80.7544 61.75C80.3921 61.1345 80.2109 60.4457 80.2109 59.6739C80.2109 58.907 80.3921 58.2132 80.7544 57.6025C81.1165 56.987 81.6208 56.5083 82.2619 56.1566C82.9032 55.8048 83.6179 55.6289 84.4157 55.6289C85.0325 55.6289 85.6003 55.7315 86.1143 55.9416C86.6283 56.1516 87.0639 56.4546 87.4261 56.8648L86.6919 57.5781C86.0947 56.9528 85.3506 56.6401 84.4597 56.6401C83.8723 56.6401 83.3389 56.7721 82.8641 57.0358C82.3892 57.2996 82.0172 57.6612 81.7479 58.1253C81.4788 58.5894 81.3466 59.1072 81.3466 59.6788C81.3466 60.2503 81.4788 60.7681 81.7479 61.2322C82.0172 61.6963 82.3892 62.0579 82.8641 62.3217C83.3389 62.5854 83.8723 62.7174 84.4597 62.7174C85.3409 62.7174 86.0849 62.3999 86.6919 61.7696L87.4261 62.4829C87.0639 62.8884 86.6233 63.1961 86.1094 63.4111C85.5904 63.6212 85.0227 63.7286 84.4059 63.7286C83.608 63.7189 82.8885 63.5429 82.2522 63.1961Z" fill="#F1EDEA"></path><path d="M94.7515 62.644V63.626H89V55.7168H94.5949V56.6987H90.1356V59.1267H94.1102V60.0891H90.1356V62.644H94.7515Z" fill="#F1EDEA"></path><path d="M101.972 56.7046H99.2555V63.6318H98.1443V56.7046H95.4375V55.7227H101.972V56.7046Z" fill="#F1EDEA"></path><path d="M108.991 59.1081C109.491 59.5282 109.745 60.1535 109.745 60.9743C109.745 61.8389 109.476 62.4985 108.938 62.9527C108.399 63.4071 107.626 63.6318 106.622 63.6318H103.348V55.7227H104.468V58.4779H106.823C107.768 58.4779 108.492 58.688 108.991 59.1081ZM108.086 62.2883C108.438 61.9904 108.61 61.5605 108.61 60.9937C108.61 59.9092 107.929 59.367 106.573 59.367H104.468V62.7329H106.573C107.229 62.7377 107.733 62.5863 108.086 62.2883Z" fill="#F1EDEA"></path><path d="M121.827 63.6318L121.817 57.8672L118.953 62.6695H118.435L115.571 57.9015V63.6318H114.484V55.7227H115.415L118.718 61.282L121.979 55.7227H122.909L122.918 63.6318H121.827Z" fill="#F1EDEA"></path><path d="M130.519 61.6532H126.31L125.438 63.6318H124.273L127.861 55.7227H128.982L132.585 63.6318H131.395L130.519 61.6532ZM130.123 60.7494L128.415 56.8756L126.706 60.7494H130.123Z" fill="#F1EDEA"></path><path d="M139.134 56.7046H135.057L135.066 63.6318H133.945V55.7227H139.144L139.134 56.7046Z" fill="#F1EDEA"></path><path d="M144.137 61.6532H139.927L139.056 63.6318H137.891L141.479 55.7227H142.6L146.202 63.6318H145.013L144.137 61.6532ZM143.74 60.7494L142.032 56.8756L140.323 60.7494H143.74Z" fill="#F1EDEA"></path><path d="M152.533 60.2122C152.811 60.5494 152.954 60.9499 152.954 61.414C152.954 61.883 152.806 62.2884 152.508 62.6402C152.209 62.9919 151.813 63.2557 151.319 63.4413C150.824 63.627 150.286 63.7198 149.703 63.7198C149.175 63.7198 148.651 63.6416 148.131 63.4853C147.613 63.329 147.134 63.0896 146.707 62.7721L147.104 61.9367C147.452 62.2054 147.839 62.4105 148.268 62.5474C148.699 62.6842 149.135 62.7525 149.571 62.7525C150.208 62.7525 150.736 62.6206 151.167 62.3519C151.597 62.0832 151.813 61.7168 151.813 61.2479C151.813 60.8473 151.651 60.5444 151.328 60.3295C151.005 60.1145 150.545 60.007 149.958 60.007H148.19V59.0935H149.88C150.383 59.0935 150.78 58.9909 151.064 58.7808C151.348 58.5756 151.489 58.2874 151.489 57.9161C151.489 57.5009 151.304 57.1736 150.936 56.9342C150.57 56.6948 150.099 56.5728 149.532 56.5728C149.16 56.5728 148.788 56.6265 148.405 56.729C148.024 56.8365 147.666 56.9929 147.324 57.2029L146.962 56.2747C147.363 56.05 147.784 55.879 148.23 55.7667C148.674 55.6543 149.12 55.5957 149.566 55.5957C150.124 55.5957 150.637 55.6836 151.108 55.8545C151.578 56.0255 151.944 56.2797 152.224 56.6118C152.497 56.944 152.636 57.3299 152.636 57.7744C152.636 58.1751 152.522 58.5219 152.302 58.8248C152.077 59.1277 151.773 59.3524 151.378 59.5039C151.862 59.6407 152.253 59.8751 152.533 60.2122Z" fill="#F1EDEA"></path><path d="M154.842 55.7168H155.963V61.8184L160.647 55.7168H161.69V63.626H160.578V57.5341L155.879 63.626H154.836V55.7168H154.842Z" fill="#F1EDEA"></path><path d="M170.982 55.7168V63.626H169.851V60.0988H165.3V63.626H164.168V55.7168H165.3V59.1168H169.851V55.7168H170.982Z" fill="#F1EDEA"></path><path d="M174.857 63.1951C174.215 62.8435 173.712 62.3598 173.344 61.7442C172.978 61.1287 172.797 60.4399 172.797 59.6778C172.797 58.9157 172.978 58.2269 173.344 57.6114C173.712 56.9957 174.215 56.5073 174.857 56.1603C175.499 55.8087 176.218 55.6328 177.02 55.6328C177.813 55.6328 178.528 55.8087 179.174 56.1603C179.816 56.5122 180.319 56.9909 180.683 57.6064C181.045 58.2219 181.226 58.9107 181.226 59.6778C181.226 60.4448 181.045 61.1384 180.683 61.754C180.319 62.3695 179.816 62.8483 179.174 63.2C178.533 63.5518 177.813 63.7227 177.02 63.7227C176.218 63.7178 175.499 63.542 174.857 63.1951ZM178.587 62.3158C179.052 62.0519 179.419 61.6905 179.683 61.2264C179.953 60.7623 180.085 60.2445 180.085 59.6728C180.085 59.1013 179.953 58.5835 179.683 58.1194C179.414 57.6552 179.048 57.2938 178.587 57.03C178.122 56.7662 177.603 56.6343 177.02 56.6343C176.439 56.6343 175.915 56.7662 175.44 57.03C174.97 57.2938 174.598 57.6552 174.329 58.1194C174.059 58.5835 173.927 59.1013 173.927 59.6728C173.927 60.2445 174.059 60.7623 174.329 61.2264C174.598 61.6905 174.964 62.0519 175.44 62.3158C175.915 62.5796 176.439 62.7115 177.02 62.7115C177.598 62.7115 178.122 62.5796 178.587 62.3158Z" fill="#F1EDEA"></path><path d="M189.204 60.2122C189.479 60.5395 189.616 60.9596 189.616 61.4725C189.616 62.1565 189.365 62.689 188.862 63.0651C188.358 63.4413 187.628 63.6318 186.668 63.6318H183.047V55.7227H186.453C187.32 55.7227 188 55.8985 188.484 56.2453C188.97 56.597 189.214 57.1003 189.214 57.7549C189.214 58.1848 189.107 58.5512 188.892 58.8491C188.675 59.152 188.372 59.3768 187.981 59.5282C188.519 59.6552 188.926 59.8848 189.204 60.2122ZM184.173 59.2008H186.38C186.933 59.2008 187.354 59.0934 187.642 58.8736C187.932 58.6537 188.078 58.3362 188.078 57.9112C188.078 57.4862 187.932 57.1687 187.638 56.944C187.344 56.7242 186.923 56.6117 186.38 56.6117H184.173V59.2008ZM188.469 61.3797C188.469 60.9303 188.318 60.5932 188.01 60.3782C187.707 60.1633 187.251 60.0558 186.645 60.0558H184.162V62.7329H186.645C187.863 62.7377 188.469 62.2835 188.469 61.3797Z" fill="#F1EDEA"></path><path d="M171.623 20.4892C168.338 20.4892 165.66 17.8219 165.66 14.5391C165.66 11.2611 168.332 8.59375 171.623 8.59375C174.907 8.59375 177.584 11.2611 177.584 14.5391C177.584 17.8219 174.911 20.4892 171.623 20.4892ZM171.623 11.9352C170.178 11.9352 169.008 13.1077 169.008 14.544C169.008 15.9851 170.184 17.1527 171.623 17.1527C173.062 17.1527 174.236 15.9802 174.236 14.544C174.236 13.1028 173.066 11.9352 171.623 11.9352Z" fill="#EA684E"></path><path d="M116.579 22.5156H105.375V27.22H107.255V43.4683H105.375V48.1728H113.853V43.4683H111.973V38.3339H116.584C120.956 38.3339 124.509 34.7873 124.509 30.4248C124.504 26.0622 120.951 22.5156 116.579 22.5156ZM116.579 33.6246H111.968V27.2152H116.579C118.351 27.2152 119.791 28.6515 119.791 30.4199C119.791 32.1884 118.351 33.6246 116.579 33.6246Z" fill="#F1EDEA"></path><path d="M256.493 22.5156H245.289V27.22H247.168V43.4683H245.289V48.1728H253.766V43.4683H251.887V38.3339H256.497C260.869 38.3339 264.423 34.7873 264.423 30.4248C264.413 26.0622 260.859 22.5156 256.493 22.5156ZM256.493 33.6246H251.883V27.2152H256.493C258.265 27.2152 259.704 28.6515 259.704 30.4199C259.704 32.1884 258.26 33.6246 256.493 33.6246Z" fill="#F1EDEA"></path><path d="M161.323 32.4228H156.069V27.176L162.933 27.137L165.175 29.5014L168.596 26.2675L166.354 23.903C165.518 23.0187 164.327 22.5156 163.09 22.5156H149.246V27.22L151.356 27.2054V43.5319H149.246V48.2362H161.317C165.684 48.2362 169.242 44.6896 169.242 40.3271C169.242 35.9695 165.689 32.4228 161.323 32.4228ZM161.323 43.5319H156.069V37.1225H161.323C163.094 37.1225 164.533 38.5586 164.533 40.3271C164.529 42.0955 163.09 43.5319 161.323 43.5319Z" fill="#F1EDEA"></path><path d="M208.426 32.4228H203.174V27.176L210.036 27.137L212.279 29.5014L215.7 26.2675L213.459 23.903C212.621 23.0187 211.431 22.5156 210.193 22.5156H196.355V27.22L198.464 27.2054V43.5319H196.355V48.2362H208.426C212.792 48.2362 216.352 44.6896 216.352 40.3271C216.346 35.9695 212.792 32.4228 208.426 32.4228ZM208.426 43.5319H203.174V37.1225H208.426C210.198 37.1225 211.637 38.5586 211.637 40.3271C211.633 42.0955 210.193 43.5319 208.426 43.5319Z" fill="#F1EDEA"></path><path d="M93.3636 25.9998L89.154 31.2318C88.6351 31.8766 87.7933 32.3163 86.8631 32.4774V27.2161H88.8064V22.5117H80.2109V27.2161H82.1542V43.4644H80.2109V48.1689H88.8064V43.4644H86.8631V37.4067C87.7687 37.5825 88.5764 38.0516 89.1001 38.755L93.3098 44.4072C95.0622 46.7619 97.9306 48.1689 100.98 48.1689H101.621V43.4644H100.98C99.4139 43.4644 97.96 42.7659 97.0887 41.5982L92.8791 35.9509C92.6148 35.5992 92.2917 35.3061 91.9735 35.0031C92.2672 34.7344 92.5755 34.4853 92.8252 34.1776L97.0349 28.9456C97.9062 27.8659 99.3796 27.221 100.98 27.221H101.621V22.5166H100.98C97.9697 22.5166 95.1209 23.8161 93.3636 25.9998Z" fill="#F1EDEA"></path><path d="M141.209 28.0173C140.411 24.8175 137.44 22.5801 133.974 22.5801H129.055L127.929 27.2845H130.171L126.338 43.4643H124.703V48.1688H132.202V43.4643H131.179L131.982 40.074H139.349L140.196 43.4643H139.089V48.1688H146.676V43.4643H145.051L141.209 28.0173ZM133.103 35.3696L134.973 27.4653C135.795 27.7534 136.441 28.369 136.632 29.1506L138.179 35.3696H133.103Z" fill="#F1EDEA"></path><path d="M191.359 30.7407L194.513 24.937L190.37 22.6947L189.989 23.3934C188.129 22.4456 186.082 21.9375 183.944 21.9375C176.557 21.9375 170.551 27.9317 170.551 35.3036C170.551 42.6753 176.557 48.6695 183.944 48.6695C187.704 48.6695 191.277 47.116 193.743 44.4096L190.259 41.244C188.683 42.9733 186.381 43.9651 183.944 43.9651C179.156 43.9651 175.265 40.0812 175.265 35.3036C175.265 30.5258 179.156 26.642 183.944 26.642C185.285 26.642 186.568 26.9596 187.742 27.536L187.218 28.4985L191.359 30.7407Z" fill="#F1EDEA"></path><path d="M239.75 41.8659V27.3177H241.238V22.6133H233.495V27.3177H235.036V40.498L227.924 43.483C227.293 43.7517 226.603 43.6832 226.03 43.3021C225.456 42.9211 225.13 42.3153 225.13 41.6314V27.3225H226.622V22.6181H218.938V27.3225H220.415V41.6314C220.415 43.8835 221.536 45.9744 223.421 47.2201C224.541 47.9626 225.834 48.3438 227.141 48.3438C228.023 48.3438 228.908 48.1728 229.75 47.8161L236.001 45.1927C236.275 45.6324 236.584 46.0575 236.969 46.4288C238.174 47.5962 239.745 48.2313 241.415 48.2313C241.429 48.2313 241.444 48.2313 241.459 48.2313V43.5268C240.95 43.4975 240.582 43.3705 240.26 43.0578C239.927 42.7403 239.75 42.3202 239.75 41.8659Z" fill="#F1EDEA"></path></svg> 